<svg width="48" height="48" viewBox="0 0 48 48" xmlns="http://www.w3.org/2000/svg">
  <circle cx="24" cy="24" r="23" fill="white" stroke="#0059B2" stroke-width="2"/>
  
  <!-- Group the contents and scale them down -->
  <g transform="scale(0.85) translate(3.5, 3.5)">
    <path d="M43.393,24c-0.141-0.217-0.301-0.422-0.486-0.607l-16.3-16.3C25.913,6.398,24.963,6,24,6s-1.913,0.398-2.607,1.093
      l-16.3,16.3C4.908,23.578,4.748,23.783,4.607,24H4v2c0,0.962,0.398,1.913,1.093,2.607l16.3,16.3C22.087,45.602,23.037,46,24,46
      s1.913-0.398,2.607-1.093l16.3-16.3C43.602,27.913,44,26.962,44,26v-2H43.393z"/>
    <path fill="#fff" d="M5.8,22.1C5.3,22.6,5,23.3,5,24s0.3,1.4,0.8,1.9l16.3,16.3l0,0c0.5,0.5,1.2,0.8,1.9,0.8
      s1.4-0.3,1.9-0.8l16.3-16.3c0.5-0.5,0.8-1.2,0.8-1.9c0-0.7-0.3-1.4-0.8-1.9L25.9,5.8C25.4,5.3,24.7,5,24,5l0,0
      c-0.7,0-1.4,0.3-1.9,0.8L5.8,22.1z"/>
    <path d="M24,44c-0.963,0-1.913-0.398-2.607-1.093l-16.3-16.3C4.398,25.913,4,24.962,4,24s0.398-1.913,1.093-2.607l16.3-16.3
      C22.087,4.398,23.037,4,24,4s1.913,0.398,2.607,1.093l16.3,16.3C43.602,22.087,44,23.038,44,24s-0.398,1.913-1.093,2.607
      l-16.3,16.3C25.913,43.602,24.963,44,24,44z M24,6c-0.43,0-0.876,0.189-1.193,0.507l-16.3,16.3l0,0C6.189,23.125,6,23.57,6,24
      s0.189,0.875,0.507,1.193l16.3,16.3c0.635,0.635,1.752,0.635,2.387,0l16.3-16.3C41.811,24.875,42,24.43,42,24
      s-0.189-0.875-0.507-1.193l-16.3-16.3C24.876,6.189,24.43,6,24,6z"/>
    <circle cx="24" cy="17" r="3"></circle>
    <circle cx="32" cy="25" r="3"></circle>
    <circle cx="24" cy="33" r="3"></circle>
    <rect width="2" height="21.799" x="24" y="7.101" transform="rotate(-45.001 25 18)"></rect>
    <rect width="2" height="15" x="23" y="18"></rect>
  </g>
</svg>
